PathFileType	4	(X/Y/Z)	C:\Users\Basilio\Documents\Thesis Gigler\squatting_fais\c3dfiles\040\SLS_pre_front2\markers_experimental.trc
DataRate	CameraRate	NumFrames	NumMarkers	Units	OrigDataRate	OrigDataStartFrame	OrigNumFrames
200.000000	200.000000	4	62	mm	200.000000	183	1471
Frame#	Time	FHD			LBHD			RBHD			C7			T10			CLAV			LSHO			LUUPA			LMUPA			LDUPA			LLEP			LMEP			LRAD			LUL			LRFIN			RSHO			RUPA1			RMUPA			RDUPA			RLEP			RMEP			RRAD			RUL			RUFIN			LASI			RASI			USACR			LSACR			RSACR			LTHI1			LTHI2			LTHI3			LTHI4			LLFC			LMFC			LTIB1			LTIB2			LTIB3			LTIB4			LLMAL			LMMAL			LHEE			LMT1			LMT2			LMT5			RTHI			RTHI2			RTHI3			RTHI4			RLFC			RMFC			RTIB1			RTIB2			RTIB3			RTIB4			RLMAL			RMMAL			RHEE			RMT1			RMT2			RMT5			*61			
		X1	Y1	Z1	X2	Y2	Z2	X3	Y3	Z3	X4	Y4	Z4	X5	Y5	Z5	X6	Y6	Z6	X7	Y7	Z7	X8	Y8	Z8	X9	Y9	Z9	X10	Y10	Z10	X11	Y11	Z11	X12	Y12	Z12	X13	Y13	Z13	X14	Y14	Z14	X15	Y15	Z15	X16	Y16	Z16	X17	Y17	Z17	X18	Y18	Z18	X19	Y19	Z19	X20	Y20	Z20	X21	Y21	Z21	X22	Y22	Z22	X23	Y23	Z23	X24	Y24	Z24	X25	Y25	Z25	X26	Y26	Z26	X27	Y27	Z27	X28	Y28	Z28	X29	Y29	Z29	X30	Y30	Z30	X31	Y31	Z31	X32	Y32	Z32	X33	Y33	Z33	X34	Y34	Z34	X35	Y35	Z35	X36	Y36	Z36	X37	Y37	Z37	X38	Y38	Z38	X39	Y39	Z39	X40	Y40	Z40	X41	Y41	Z41	X42	Y42	Z42	X43	Y43	Z43	X44	Y44	Z44	X45	Y45	Z45	X46	Y46	Z46	X47	Y47	Z47	X48	Y48	Z48	X49	Y49	Z49	X50	Y50	Z50	X51	Y51	Z51	X52	Y52	Z52	X53	Y53	Z53	X54	Y54	Z54	X55	Y55	Z55	X56	Y56	Z56	X57	Y57	Z57	X58	Y58	Z58	X59	Y59	Z59	X60	Y60	Z60	X61	Y61	Z61	X62	Y62	Z62	

184	0.915	-158.2325134277344	1777.113403320313	-1098.655517578125	-285.6120300292969	1731.939453125	-1136.031005859375	-334.2595825195313	1692.917358398438	-1002.802490234375	-352.3304443359376	1566.750122070313	-1051.540283203125	-380.8974304199219	1248.770751953125	-1045.899536132813	-221.8636322021485	1498.64697265625	-1057.546875	-282.8888244628907	1526.4736328125	-1232.483276367188	-296.1538696289063	1311.862915039063	-1306.791137695313	-255.7903289794922	1290.561889648438	-1290.01806640625	-291.1032104492188	1242.928100585938	-1309.116088867188	-298.8622131347657	1180.09375	-1302.537719726563	-322.2955627441407	1173.102905273438	-1239.590576171875	-127.6817779541016	953.876159667969	-1257.417724609375	-173.2355194091797	937.032653808594	-1316.63916015625	-81.26753234863283	878.0798950195315	-1279.069946289063	-258.5332946777344	1509.992919921875	-881.2650146484377	-282.5831298828126	1295.633666992188	-799.2845458984377	-243.2814331054688	1273.572631835938	-817.8770751953127	-276.0163574218751	1226.552978515625	-800.6641235351565	-265.0092773437501	1164.90283203125	-802.9743652343752	-301.6802978515626	1153.765991210938	-870.9155273437502	-93.31667327880861	941.6096801757815	-877.1126098632815	-140.1417083740235	915.5034790039065	-823.5144653320315	-42.96429824829102	867.405456542969	-860.1580810546877	-200.2631072998047	1079.037231445313	-1160.558349609375	-192.4627075195313	1079.2236328125	-929.3862915039065	-383.2948608398438	1113.3369140625	-1038.763427734375	-388.9246520996095	1083.897216796875	-1066.749389648438	-388.1300659179689	1082.501220703125	-1010.935180664063	-318.7741088867188	819.6401367187502	-1211.576416015625	-280.8058471679688	744.2553710937501	-1211.234008789063	-234.6560516357422	748.6214599609376	-1213.875854492188	-303.6810302734376	691.5212402343751	-1196.9443359375	-288.4644165039063	557.2177124023439	-1181.365600585938	-289.3133544921876	545.3588256835939	-1048.710815429688	-265.2584228515626	335.2407226562501	-1127.096069335938	-337.8602905273438	295.3191528320313	-1161.703735351563	-295.0180969238282	287.0520324707032	-1148.496337890625	-289.1293945312501	212.4041290283204	-1107.556762695313	-360.0220642089844	126.5758438110352	-1107.516723632813	-320.3442687988282	143.0052490234375	-1030.7041015625	-414.4508666992189	96.54414367675784	-1050.002319335938	-199.7958221435547	60.96268463134767	-1050.999389648438	-205.3468170166016	52.3873863220215	-1096.646240234375	-261.0917663574219	36.6101417541504	-1138.124877929688	-253.9736633300782	807.1253051757815	-858.2873535156252	-222.3479156494141	749.7171020507814	-862.978210449219	-189.697250366211	750.7832641601564	-869.484069824219	-255.2457580566407	673.9939575195314	-876.9252929687502	-255.5752868652344	537.9968872070314	-889.6523437500002	-249.9712219238282	531.7436523437501	-1022.958923339844	-205.4529113769532	353.7175903320313	-914.7177734375002	-275.8883056640626	274.5472106933594	-892.7214355468752	-230.3688201904297	270.7236328125001	-901.2354736328127	-213.6287841796876	225.6966247558594	-935.3051757812502	-265.4105529785157	112.2777404785157	-918.6842041015627	-244.1309509277344	126.216064453125	-1003.634460449219	-324.5496520996094	70.52928924560548	-974.4626464843752	-103.9022674560547	56.52443313598634	-985.0718383789065	-108.0183258056641	56.75084304809572	-946.1687622070315	-149.8707885742188	34.60740661621094	-892.7106933593752	nan	nan	nan	
185	0.92	-158.5431213378907	1777.077392578125	-1099.025268554688	-285.7396850585938	1731.948486328125	-1136.276733398438	-334.4177856445313	1693.004760742188	-1003.088928222656	-352.5472412109376	1566.765380859375	-1051.769775390625	-381.1106872558594	1248.790649414063	-1046.117919921875	-222.0219421386719	1498.809326171875	-1057.853149414063	-283.1060180664063	1526.594604492188	-1232.686767578125	-296.1039428710938	1311.964233398438	-1307.15625	-255.8665924072266	1290.767211914063	-1290.245239257813	-291.0493469238282	1243.000610351563	-1309.408569335938	-298.7622680664063	1180.169067382813	-1302.957763671875	-322.2761230468751	1173.136596679688	-1240.041137695313	-127.5398788452149	954.0216064453127	-1257.638549804688	-172.9517059326172	937.1896972656252	-1316.98876953125	-80.99018859863283	878.3642578125002	-1279.24951171875	-258.6878051757813	1509.9970703125	-881.5760498046877	-282.5686645507813	1295.7265625	-799.5031738281252	-243.3106842041016	1273.649780273438	-818.0563964843752	-275.8519897460938	1226.556274414063	-800.8513793945315	-264.9415893554688	1164.340698242188	-802.7139282226565	-301.6830749511719	1153.838256835938	-871.103210449219	-93.27969360351564	941.5817871093752	-877.3007812500002	-140.1033782958985	915.5505371093752	-823.7819824218752	-42.75902175903321	867.532409667969	-860.5728149414065	-200.4174346923829	1078.989868164063	-1160.636474609375	-192.7325744628907	1079.381103515625	-929.464538574219	-383.5836486816407	1113.20556640625	-1038.957153320313	-389.1411437988282	1083.765747070313	-1066.891845703125	-388.4387817382814	1082.359497070313	-1011.122009277344	-318.6654052734376	819.5374145507815	-1211.528442382813	-280.5918579101563	744.1680908203126	-1211.2373046875	-234.389633178711	748.6061401367189	-1213.814697265625	-303.3178710937501	691.3863525390626	-1196.906616210938	-287.9556274414063	557.0789794921876	-1181.364990234375	-288.9451599121094	545.3247070312501	-1048.609008789063	-264.7719726562501	334.4955749511719	-1127.3837890625	-337.6734313964844	295.2859802246094	-1161.710327148438	-294.9732055664063	287.3070678710938	-1148.348754882813	-288.6835937500001	211.9772338867188	-1107.320556640625	-359.9732666015626	126.5607452392578	-1107.51220703125	-320.3356018066407	142.9951324462891	-1030.69091796875	-414.4418334960939	96.53873443603518	-1049.997314453125	-199.7537689208985	60.99126052856447	-1050.987670898438	-205.3110809326172	52.39739227294923	-1096.75830078125	-260.9996948242188	36.5346794128418	-1138.1650390625	-253.9765625000001	807.250915527344	-858.349548339844	-222.3380432128907	749.8152465820314	-863.018249511719	-189.6117706298828	751.2034912109376	-869.4338378906252	-255.2263183593751	674.0463867187501	-877.0100708007815	-255.3338623046876	538.1795043945314	-889.678649902344	-249.9532470703126	531.8052978515626	-1023.042053222656	-205.1989898681641	353.7868957519532	-914.9068603515627	-275.3881835937501	275.0289611816407	-892.6667480468752	-230.3293457031251	270.7915039062501	-901.2254638671877	-213.5462799072266	225.6853637695313	-935.3629150390627	-265.3516540527344	112.2837371826172	-918.654968261719	-244.1997375488282	126.2486343383789	-1003.662231445313	-324.6081237792969	70.52098846435548	-974.486022949219	-103.9363403320313	56.50396728515626	-985.0642089843752	-108.0088729858399	56.7166213989258	-946.248474121094	-149.8636322021485	34.72121047973634	-892.738464355469	nan	nan	nan	
186	0.925	-158.8032531738282	1777.131103515625	-1099.329956054688	-285.7951049804688	1731.909057617188	-1136.538452148438	-334.4518432617188	1693.049682617188	-1003.408508300781	-352.6731872558594	1566.806518554688	-1052.052001953125	-381.4134216308594	1248.807250976563	-1046.343872070313	-222.1134796142579	1498.88720703125	-1058.078247070313	-283.1707153320313	1526.604125976563	-1232.9150390625	-296.1071472167969	1312.117553710938	-1307.546875	-256.3001708984376	1290.933837890625	-1290.182983398438	-290.9575500488282	1243.130249023438	-1309.785400390625	-298.7861328125001	1180.332275390625	-1303.332397460938	-322.2762756347657	1173.23388671875	-1240.45166015625	-127.2239227294922	954.2935791015627	-1257.924560546875	-172.6315002441407	937.3799438476565	-1317.254516601563	-80.68054962158205	878.6049804687502	-1279.46728515625	-258.6825256347657	1510.044555664063	-881.833435058594	-282.5080261230469	1295.820190429688	-799.664733886719	-243.3253784179688	1273.675170898438	-818.1525878906252	-275.8030090332032	1226.61669921875	-801.0573730468752	-264.8882141113282	1164.402465820313	-802.8536376953127	-301.6385498046876	1153.917114257813	-871.1971435546877	-93.16014862060548	941.6295166015627	-877.5091552734377	-140.1583099365235	915.4183349609377	-824.0357055664065	-42.62673568725587	867.758972167969	-860.8817138671877	-200.6370391845704	1079.061401367188	-1160.671142578125	-193.6930847167969	1080.337158203125	-929.3753662109377	-383.7520751953126	1113.040405273438	-1039.093505859375	-390.5093383789064	1083.764892578125	-1067.385375976563	-388.6958923339845	1082.258544921875	-1011.199401855469	-318.5513916015626	819.3937988281252	-1211.427124023438	-280.2791442871094	744.0270385742189	-1211.213134765625	-234.2249298095704	748.6226806640626	-1213.879028320313	-302.9726562500001	691.2792358398439	-1196.90087890625	-287.7023925781251	556.9727172851564	-1181.403076171875	-289.2780151367188	545.3082885742189	-1048.832397460938	-264.2769775390626	334.3433837890626	-1127.396240234375	-337.5300292968751	295.2847900390626	-1161.736083984375	-294.7149047851563	287.2821350097657	-1148.401977539063	-288.7708435058594	212.1620025634766	-1107.528930664063	-360.0172424316407	126.5589370727539	-1107.517700195313	-320.2470092773438	142.9505310058594	-1030.708129882813	-414.456024169922	96.55701446533206	-1049.980346679688	-199.7953338623047	60.89413833618165	-1050.989624023438	-205.324935913086	52.36682891845705	-1096.72509765625	-261.0809020996094	36.52378463745118	-1138.1748046875	-254.0121765136719	807.3212890625002	-858.461364746094	-222.3065643310547	749.9765625000001	-863.0559082031252	-189.7592468261719	751.2268676757814	-869.7498779296877	-255.0227966308594	674.1918945312501	-877.1488037109377	-255.1402740478516	538.2980346679689	-889.6773681640627	-249.7078247070313	531.8895874023439	-1023.053283691406	-204.8089141845704	353.8688659667969	-915.093933105469	-275.2312011718751	275.0445251464844	-892.7465820312502	-230.1562805175782	270.7973632812501	-901.233581542969	-213.399398803711	225.720687866211	-935.374694824219	-265.3460693359376	112.3388977050782	-918.727722167969	-244.1025695800782	126.2919616699219	-1003.671325683594	-324.5987548828126	70.58380126953126	-974.4857177734377	-103.9286651611328	56.49300384521486	-985.0855712890627	-108.0215606689453	56.74589920043947	-946.255310058594	-149.900634765625	34.74425125122071	-892.7041015625002	nan	nan	nan	
187	0.93	-158.9312744140625	1777.14453125	-1099.576538085938	-285.9056091308594	1731.907470703125	-1136.809692382813	-334.6852416992188	1693.110229492188	-1003.656127929688	-352.7908935546876	1566.876342773438	-1052.259155273438	-381.6894836425782	1248.820068359375	-1046.571411132813	-222.2384338378907	1498.901245117188	-1058.315185546875	-283.3166809082032	1526.658813476563	-1233.15966796875	-295.9761657714844	1312.24462890625	-1307.981079101563	-255.8317871093751	1291.019287109375	-1290.83154296875	-290.8901062011719	1243.263671875	-1310.171875	-298.6940917968751	1180.4228515625	-1303.808471679688	-322.2322998046876	1173.238159179688	-1241.008056640625	-127.1399765014649	954.385925292969	-1258.188598632813	-172.456771850586	937.5632324218752	-1317.550048828125	-80.48382568359376	878.9146118164065	-1279.731689453125	-258.6744689941407	1510.036865234375	-882.1459960937502	-282.5212707519532	1295.77880859375	-799.763122558594	-243.3721160888672	1273.743530273438	-818.3676757812502	-275.7005310058594	1226.777587890625	-801.2667236328127	-264.8131713867188	1164.461059570313	-803.0015258789065	-301.6968078613282	1153.973999023438	-871.3504638671877	-93.07646942138673	941.924255371094	-877.8612060546877	-139.9432067871094	915.5017089843752	-824.3950195312502	-42.37222290039063	867.8714599609377	-861.2003173828127	-200.7826232910157	1079.0517578125	-1160.7841796875	-194.0782623291016	1080.396850585938	-929.4031982421877	-383.9888000488282	1112.851196289063	-1039.28857421875	-389.2292785644532	1083.407958984375	-1067.151245117188	-389.053436279297	1082.146484375	-1011.377563476563	-318.4963684082032	819.2611083984377	-1211.455932617188	-280.1013183593751	743.8941040039064	-1211.253662109375	-234.0590515136719	748.6202392578126	-1213.894409179688	-302.6571044921876	691.1341552734376	-1196.876220703125	-287.2567443847657	556.8273925781251	-1181.443603515625	-288.8449096679688	545.1535644531251	-1048.933349609375	-264.2862548828126	333.4637756347657	-1127.350219726563	-337.3297119140626	295.2314147949219	-1161.720703125	-294.6405334472657	286.7302246093751	-1148.477172851563	-288.3655090332032	211.8963623046876	-1107.399291992188	-359.6372070312501	126.3197021484375	-1107.471313476563	-320.2348327636719	143.0012512207032	-1030.7109375	-414.4688110351564	96.5601501464844	-1050.021850585938	-199.7404479980469	60.9123878479004	-1050.981201171875	-205.3392181396485	52.36190414428712	-1096.716552734375	-260.9476318359376	36.46703338623048	-1138.165405273438	-254.1293029785157	807.408874511719	-858.5792236328127	-222.3584136962891	750.1391601562501	-863.118103027344	-189.798812866211	751.4123535156251	-869.8499755859377	-254.8955535888672	674.2539672851564	-877.2492675781252	-254.8136291503907	538.3280029296876	-889.7625122070315	-249.5340728759766	531.9202270507814	-1023.131530761719	-205.3243560791016	353.1241760253907	-914.7761230468752	-275.1101379394532	275.2202453613282	-892.752380371094	-230.0678253173829	270.8440246582032	-901.2866821289065	-213.1676025390626	225.7868652343751	-935.5457153320315	-265.2186279296876	112.3954086303711	-918.7937622070315	-244.7825775146485	126.8259048461914	-1003.601135253906	-324.6077270507813	70.56736755371095	-974.4996337890627	-103.9649887084961	56.55067443847658	-985.0834960937502	-108.0058517456055	56.78006744384767	-946.206970214844	-149.4234008789063	35.00903320312501	-892.4284667968752	nan	nan	nan	
